<?xml version="1.0" encoding="UTF-8"?>
<!DOCTYPE svg PUBLIC "-//W3C//DTD SVG 1.1//EN" "http://www.w3.org/Graphics/SVG/1.1/DTD/svg11.dtd">
<svg xmlns="http://www.w3.org/2000/svg" version="1.1" width="400px" height="400px" style="shape-rendering:geometricPrecision; text-rendering:geometricPrecision; image-rendering:optimizeQuality; fill-rule:evenodd; clip-rule:evenodd" xmlns:xlink="http://www.w3.org/1999/xlink">
<g><path style="opacity:1" fill="#000000" d="M -0.5,-0.5 C 132.833,-0.5 266.167,-0.5 399.5,-0.5C 399.5,132.833 399.5,266.167 399.5,399.5C 266.167,399.5 132.833,399.5 -0.5,399.5C -0.5,266.167 -0.5,132.833 -0.5,-0.5 Z"/></g>
<g><path style="opacity:1" fill="#bebebe" d="M 181.5,156.5 C 190.986,155.506 200.652,155.173 210.5,155.5C 210.5,151.833 210.5,148.167 210.5,144.5C 186.5,144.5 162.5,144.5 138.5,144.5C 138.5,148.167 138.5,151.833 138.5,155.5C 148.348,155.173 158.014,155.506 167.5,156.5C 157.5,156.5 147.5,156.5 137.5,156.5C 137.5,152.167 137.5,147.833 137.5,143.5C 162.167,143.5 186.833,143.5 211.5,143.5C 211.5,147.833 211.5,152.167 211.5,156.5C 201.5,156.5 191.5,156.5 181.5,156.5 Z"/></g>
<g><path style="opacity:1" fill="#fbfbfb" d="M 66.5,144.5 C 66.5,160.167 66.5,175.833 66.5,191.5C 72.358,191.822 78.0247,191.489 83.5,190.5C 91.0518,175.064 98.8851,159.73 107,144.5C 111.782,143.198 116.615,143.198 121.5,144.5C 112.815,161.87 104.149,179.203 95.5,196.5C 104.431,215.529 113.764,234.362 123.5,253C 118.136,253.829 112.802,253.663 107.5,252.5C 99.3922,235.95 91.0589,219.616 82.5,203.5C 77.3595,202.512 72.0262,202.179 66.5,202.5C 66.5,219.5 66.5,236.5 66.5,253.5C 62.1667,253.5 57.8333,253.5 53.5,253.5C 53.5,216.833 53.5,180.167 53.5,143.5C 58.0323,143.182 62.3656,143.515 66.5,144.5 Z"/></g>
<g><path style="opacity:1" fill="#575757" d="M 66.5,144.5 C 67.4962,159.658 67.8295,174.991 67.5,190.5C 72.8333,190.5 78.1667,190.5 83.5,190.5C 78.0247,191.489 72.358,191.822 66.5,191.5C 66.5,175.833 66.5,160.167 66.5,144.5 Z"/></g>
<g><path style="opacity:1" fill="#f9f9f9" d="M 181.5,156.5 C 181.5,188.833 181.5,221.167 181.5,253.5C 176.833,253.5 172.167,253.5 167.5,253.5C 167.5,221.167 167.5,188.833 167.5,156.5C 158.014,155.506 148.348,155.173 138.5,155.5C 138.5,151.833 138.5,148.167 138.5,144.5C 162.5,144.5 186.5,144.5 210.5,144.5C 210.5,148.167 210.5,151.833 210.5,155.5C 200.652,155.173 190.986,155.506 181.5,156.5 Z"/></g>
<g><path style="opacity:1" fill="#fafafa" d="M 233.5,143.5 C 244.838,143.333 256.172,143.5 267.5,144C 281.188,146.025 290.354,153.525 295,166.5C 296.119,177.111 296.619,187.778 296.5,198.5C 296.333,207.833 296.167,217.167 296,226.5C 292.922,242.245 283.422,251.078 267.5,253C 256.172,253.5 244.838,253.667 233.5,253.5C 233.5,216.833 233.5,180.167 233.5,143.5 Z"/></g>
<g><path style="opacity:1" fill="#555555" d="M 266.5,156.5 C 260.167,156.5 253.833,156.5 247.5,156.5C 247.5,184.833 247.5,213.167 247.5,241.5C 246.502,213.005 246.169,184.338 246.5,155.5C 253.354,155.176 260.021,155.509 266.5,156.5 Z"/></g>
<g><path style="opacity:1" fill="#000000" d="M 266.5,156.5 C 274.241,157.74 279.408,162.073 282,169.5C 282.667,188.5 282.667,207.5 282,226.5C 280.325,232.841 276.492,237.341 270.5,240C 262.905,241.356 255.238,241.856 247.5,241.5C 247.5,213.167 247.5,184.833 247.5,156.5C 253.833,156.5 260.167,156.5 266.5,156.5 Z"/></g>
<g><path style="opacity:1" fill="#4a4a4a" d="M 82.5,203.5 C 77.5,203.5 72.5,203.5 67.5,203.5C 67.8298,220.342 67.4965,237.008 66.5,253.5C 66.5,236.5 66.5,219.5 66.5,202.5C 72.0262,202.179 77.3595,202.512 82.5,203.5 Z"/></g>
<g><path style="opacity:1" fill="#fafafa" d="M 348.5,230.5 C 361.768,228.602 367.601,234.268 366,247.5C 365.208,249.587 364.041,251.421 362.5,253C 347.137,257.97 340.637,252.47 343,236.5C 344.36,233.977 346.193,231.977 348.5,230.5 Z"/></g>
</svg>
